P3
2 2
130
0 0 0 0 0 0 
130 130 130 130 130 130 
