P3
2 2
130
130 130 130 130 130 130 
0 0 0 0 0 0 
