P2
2 2
180
3 2 
3 4 
